<svg width="18" height="20" viewBox="0 0 18 20" fill="none" xmlns="http://www.w3.org/2000/svg">
<path d="M8.99446 10.2076C9.37587 10.2076 9.7025 10.049 9.97435 9.73183C10.2457 9.41522 10.3814 9.03442 10.3814 8.58944C10.3814 8.14445 10.2457 7.76338 9.97435 7.44623C9.7025 7.12962 9.37587 6.97131 8.99446 6.97131C8.61304 6.97131 8.28665 7.12962 8.01526 7.44623C7.74342 7.76338 7.6075 8.14445 7.6075 8.58944C7.6075 9.03442 7.74342 9.41522 8.01526 9.73183C8.28665 10.049 8.61304 10.2076 8.99446 10.2076ZM8.99446 17.9948C8.902 17.9948 8.80953 17.9745 8.71707 17.9341C8.6246 17.8936 8.5437 17.8397 8.47435 17.7723C6.78688 16.0328 5.52705 14.4182 4.69488 12.9284C3.8627 11.4381 3.44661 10.0457 3.44661 8.75125C3.44661 6.72859 4.0044 5.11721 5.11998 3.91711C6.2351 2.717 7.52659 2.11694 8.99446 2.11694C10.4623 2.11694 11.7538 2.717 12.8689 3.91711C13.9845 5.11721 14.5423 6.72859 14.5423 8.75125C14.5423 10.0457 14.1262 11.4381 13.294 12.9284C12.4619 14.4182 11.202 16.0328 9.51457 17.7723C9.44522 17.8397 9.36432 17.8936 9.27185 17.9341C9.17939 17.9745 9.08692 17.9948 8.99446 17.9948Z" fill="black"/>
</svg>
