<svg width="17" height="21" viewBox="0 0 17 21" fill="none" xmlns="http://www.w3.org/2000/svg">
<path d="M8.32178 10.3081C8.70319 10.3081 9.02982 10.1496 9.30167 9.83242C9.57305 9.5158 9.70874 9.135 9.70874 8.69002C9.70874 8.24504 9.57305 7.86397 9.30167 7.54682C9.02982 7.2302 8.70319 7.0719 8.32178 7.0719C7.94036 7.0719 7.61396 7.2302 7.34258 7.54682C7.07074 7.86397 6.93481 8.24504 6.93481 8.69002C6.93481 9.135 7.07074 9.5158 7.34258 9.83242C7.61396 10.1496 7.94036 10.3081 8.32178 10.3081ZM8.32178 18.0954C8.22931 18.0954 8.13685 18.0751 8.04438 18.0347C7.95192 17.9942 7.87101 17.9403 7.80166 17.8729C6.11419 16.1334 4.85437 14.5188 4.02219 13.029C3.19001 11.5387 2.77393 10.1463 2.77393 8.85183C2.77393 6.82918 3.33172 5.2178 4.4473 4.01769C5.56241 2.81758 6.85391 2.21753 8.32178 2.21753C9.78964 2.21753 11.0811 2.81758 12.1963 4.01769C13.3118 5.2178 13.8696 6.82918 13.8696 8.85183C13.8696 10.1463 13.4535 11.5387 12.6214 13.029C11.7892 14.5188 10.5294 16.1334 8.84189 17.8729C8.77254 17.9403 8.69163 17.9942 8.59917 18.0347C8.5067 18.0751 8.41424 18.0954 8.32178 18.0954Z" fill="black"/>
</svg>
