<svg width="18" height="20" viewBox="0 0 18 20" fill="none" xmlns="http://www.w3.org/2000/svg">
<path d="M8.99463 10.2076C9.37604 10.2076 9.70267 10.049 9.97452 9.73183C10.2459 9.41522 10.3816 9.03442 10.3816 8.58944C10.3816 8.14445 10.2459 7.76338 9.97452 7.44623C9.70267 7.12962 9.37604 6.97131 8.99463 6.97131C8.61321 6.97131 8.28681 7.12962 8.01543 7.44623C7.74359 7.76338 7.60766 8.14445 7.60766 8.58944C7.60766 9.03442 7.74359 9.41522 8.01543 9.73183C8.28681 10.049 8.61321 10.2076 8.99463 10.2076ZM8.99463 17.9948C8.90216 17.9948 8.8097 17.9745 8.71724 17.9341C8.62477 17.8936 8.54386 17.8397 8.47452 17.7723C6.78705 16.0328 5.52722 14.4182 4.69504 12.9284C3.86287 11.4381 3.44678 10.0457 3.44678 8.75125C3.44678 6.72859 4.00457 5.11721 5.12015 3.91711C6.23527 2.717 7.52676 2.11694 8.99463 2.11694C10.4625 2.11694 11.754 2.717 12.8691 3.91711C13.9847 5.11721 14.5425 6.72859 14.5425 8.75125C14.5425 10.0457 14.1264 11.4381 13.2942 12.9284C12.462 14.4182 11.2022 16.0328 9.51474 17.7723C9.44539 17.8397 9.36448 17.8936 9.27202 17.9341C9.17956 17.9745 9.08709 17.9948 8.99463 17.9948Z" fill="black"/>
</svg>
