<svg width="14" height="16" viewBox="0 0 14 16" fill="none" xmlns="http://www.w3.org/2000/svg">
<path d="M6.69249 8.03863C6.99922 8.03863 7.2619 7.91111 7.48051 7.65606C7.69876 7.40144 7.80788 7.0952 7.80788 6.73735C7.80788 6.3795 7.69876 6.07305 7.48051 5.818C7.2619 5.56338 6.99922 5.43607 6.69249 5.43607C6.38576 5.43607 6.12328 5.56338 5.90503 5.818C5.68642 6.07305 5.57711 6.3795 5.57711 6.73735C5.57711 7.0952 5.68642 7.40144 5.90503 7.65606C6.12328 7.91111 6.38576 8.03863 6.69249 8.03863ZM6.69249 14.3011C6.61813 14.3011 6.54378 14.2848 6.46942 14.2523C6.39506 14.2197 6.32999 14.1763 6.27422 14.1221C4.91717 12.7232 3.90403 11.4248 3.2348 10.2267C2.56557 9.02826 2.23096 7.90851 2.23096 6.86748C2.23096 5.24088 2.67953 3.94502 3.57667 2.9799C4.47344 2.01479 5.51205 1.53223 6.69249 1.53223C7.87294 1.53223 8.91155 2.01479 9.80832 2.9799C10.7055 3.94502 11.154 5.24088 11.154 6.86748C11.154 7.90851 10.8194 9.02826 10.1502 10.2267C9.48095 11.4248 8.46781 12.7232 7.11076 14.1221C7.05499 14.1763 6.98993 14.2197 6.91557 14.2523C6.84121 14.2848 6.76685 14.3011 6.69249 14.3011Z" fill="black"/>
</svg>
