<svg width="14" height="16" viewBox="0 0 14 16" fill="none" xmlns="http://www.w3.org/2000/svg">
<path d="M6.69225 8.03863C6.99898 8.03863 7.26165 7.91111 7.48027 7.65606C7.69851 7.40144 7.80763 7.0952 7.80763 6.73735C7.80763 6.3795 7.69851 6.07305 7.48027 5.818C7.26165 5.56338 6.99898 5.43607 6.69225 5.43607C6.38552 5.43607 6.12303 5.56338 5.90479 5.818C5.68617 6.07305 5.57687 6.3795 5.57687 6.73735C5.57687 7.0952 5.68617 7.40144 5.90479 7.65606C6.12303 7.91111 6.38552 8.03863 6.69225 8.03863ZM6.69225 14.3011C6.61789 14.3011 6.54353 14.2848 6.46917 14.2523C6.39481 14.2197 6.32975 14.1763 6.27398 14.1221C4.91693 12.7232 3.90379 11.4248 3.23456 10.2267C2.56533 9.02826 2.23071 7.90851 2.23071 6.86748C2.23071 5.24088 2.67928 3.94502 3.57642 2.9799C4.47319 2.01479 5.5118 1.53223 6.69225 1.53223C7.8727 1.53223 8.91131 2.01479 9.80807 2.9799C10.7052 3.94502 11.1538 5.24088 11.1538 6.86748C11.1538 7.90851 10.8192 9.02826 10.1499 10.2267C9.48071 11.4248 8.46757 12.7232 7.11052 14.1221C7.05475 14.1763 6.98968 14.2197 6.91533 14.2523C6.84097 14.2848 6.76661 14.3011 6.69225 14.3011Z" fill="black"/>
</svg>
