<svg width="12" height="15" viewBox="0 0 12 15" fill="none" xmlns="http://www.w3.org/2000/svg">
<path d="M5.63706 7.37144C5.89543 7.37144 6.11668 7.25105 6.30083 7.01027C6.48466 6.76989 6.57657 6.48079 6.57657 6.14295C6.57657 5.80512 6.48466 5.51581 6.30083 5.27503C6.11668 5.03465 5.89543 4.91447 5.63706 4.91447C5.37869 4.91447 5.15759 5.03465 4.97376 5.27503C4.78962 5.51581 4.69754 5.80512 4.69754 6.14295C4.69754 6.48079 4.78962 6.76989 4.97376 7.01027C5.15759 7.25105 5.37869 7.37144 5.63706 7.37144ZM5.63706 13.2835C5.57442 13.2835 5.51179 13.2682 5.44916 13.2375C5.38652 13.2068 5.33172 13.1658 5.28474 13.1146C4.14166 11.794 3.28827 10.5682 2.72456 9.43714C2.16085 8.30571 1.879 7.24859 1.879 6.2658C1.879 4.73019 2.25684 3.50682 3.01252 2.5957C3.76789 1.68457 4.64274 1.229 5.63706 1.229C6.63138 1.229 7.50622 1.68457 8.26159 2.5957C9.01728 3.50682 9.39512 4.73019 9.39512 6.2658C9.39512 7.24859 9.11327 8.30571 8.54956 9.43714C7.98585 10.5682 7.13245 11.794 5.98938 13.1146C5.9424 13.1658 5.8876 13.2068 5.82496 13.2375C5.76233 13.2682 5.69969 13.2835 5.63706 13.2835Z" fill="black"/>
</svg>
