<svg width="14" height="16" viewBox="0 0 14 16" fill="none" xmlns="http://www.w3.org/2000/svg">
<path d="M6.69234 8.03863C6.99907 8.03863 7.26174 7.91111 7.48036 7.65606C7.6986 7.40144 7.80772 7.0952 7.80772 6.73735C7.80772 6.3795 7.6986 6.07305 7.48036 5.818C7.26174 5.56338 6.99907 5.43607 6.69234 5.43607C6.38561 5.43607 6.12312 5.56338 5.90488 5.818C5.68626 6.07305 5.57696 6.3795 5.57696 6.73735C5.57696 7.0952 5.68626 7.40144 5.90488 7.65606C6.12312 7.91111 6.38561 8.03863 6.69234 8.03863ZM6.69234 14.3011C6.61798 14.3011 6.54362 14.2848 6.46926 14.2523C6.39491 14.2197 6.32984 14.1763 6.27407 14.1221C4.91702 12.7232 3.90388 11.4248 3.23465 10.2267C2.56542 9.02826 2.2308 7.90851 2.2308 6.86748C2.2308 5.24088 2.67937 3.94502 3.57652 2.9799C4.47328 2.01479 5.51189 1.53223 6.69234 1.53223C7.87279 1.53223 8.9114 2.01479 9.80817 2.9799C10.7053 3.94502 11.1539 5.24088 11.1539 6.86748C11.1539 7.90851 10.8193 9.02826 10.15 10.2267C9.4808 11.4248 8.46766 12.7232 7.11061 14.1221C7.05484 14.1763 6.98978 14.2197 6.91542 14.2523C6.84106 14.2848 6.7667 14.3011 6.69234 14.3011Z" fill="black"/>
</svg>
