<svg width="18" height="20" viewBox="0 0 18 20" fill="none" xmlns="http://www.w3.org/2000/svg">
<path d="M8.99438 10.2073C9.3758 10.2073 9.70243 10.0487 9.97427 9.73159C10.2457 9.41497 10.3813 9.03417 10.3813 8.58919C10.3813 8.14421 10.2457 7.76314 9.97427 7.44599C9.70243 7.12937 9.3758 6.97107 8.99438 6.97107C8.61297 6.97107 8.28657 7.12937 8.01519 7.44599C7.74334 7.76314 7.60742 8.14421 7.60742 8.58919C7.60742 9.03417 7.74334 9.41497 8.01519 9.73159C8.28657 10.0487 8.61297 10.2073 8.99438 10.2073ZM8.99438 17.9945C8.90192 17.9945 8.80946 17.9743 8.71699 17.9339C8.62453 17.8934 8.54362 17.8395 8.47427 17.772C6.7868 16.0326 5.52698 14.4179 4.6948 12.9282C3.86262 11.4379 3.44653 10.0455 3.44653 8.751C3.44653 6.72835 4.00432 5.11697 5.1199 3.91686C6.23502 2.71675 7.52651 2.1167 8.99438 2.1167C10.4623 2.1167 11.7537 2.71675 12.8689 3.91686C13.9844 5.11697 14.5422 6.72835 14.5422 8.751C14.5422 10.0455 14.1261 11.4379 13.294 12.9282C12.4618 14.4179 11.202 16.0326 9.51449 17.772C9.44515 17.8395 9.36424 17.8934 9.27178 17.9339C9.17931 17.9743 9.08685 17.9945 8.99438 17.9945Z" fill="black"/>
</svg>
