<svg width="14" height="16" viewBox="0 0 14 16" fill="none" xmlns="http://www.w3.org/2000/svg">
<path d="M6.69237 8.03863C6.9991 8.03863 7.26178 7.91111 7.48039 7.65606C7.69863 7.40144 7.80776 7.0952 7.80776 6.73735C7.80776 6.3795 7.69863 6.07305 7.48039 5.818C7.26178 5.56338 6.9991 5.43607 6.69237 5.43607C6.38564 5.43607 6.12315 5.56338 5.90491 5.818C5.6863 6.07305 5.57699 6.3795 5.57699 6.73735C5.57699 7.0952 5.6863 7.40144 5.90491 7.65606C6.12315 7.91111 6.38564 8.03863 6.69237 8.03863ZM6.69237 14.3011C6.61801 14.3011 6.54365 14.2848 6.46929 14.2523C6.39494 14.2197 6.32987 14.1763 6.2741 14.1221C4.91705 12.7232 3.90391 11.4248 3.23468 10.2267C2.56545 9.02826 2.23083 7.90851 2.23083 6.86748C2.23083 5.24088 2.67941 3.94502 3.57655 2.9799C4.47331 2.01479 5.51192 1.53223 6.69237 1.53223C7.87282 1.53223 8.91143 2.01479 9.8082 2.9799C10.7053 3.94502 11.1539 5.24088 11.1539 6.86748C11.1539 7.90851 10.8193 9.02826 10.1501 10.2267C9.48083 11.4248 8.46769 12.7232 7.11064 14.1221C7.05487 14.1763 6.98981 14.2197 6.91545 14.2523C6.84109 14.2848 6.76673 14.3011 6.69237 14.3011Z" fill="black"/>
</svg>
