<svg width="17" height="21" viewBox="0 0 17 21" fill="none" xmlns="http://www.w3.org/2000/svg">
<path d="M8.33339 10.4993C8.71533 10.4993 9.04242 10.3405 9.31464 10.0229C9.5864 9.70587 9.72228 9.32454 9.72228 8.87894C9.72228 8.43334 9.5864 8.05174 9.31464 7.73415C9.04242 7.4171 8.71533 7.25857 8.33339 7.25857C7.95144 7.25857 7.62459 7.4171 7.35283 7.73415C7.08061 8.05174 6.9445 8.43334 6.9445 8.87894C6.9445 9.32454 7.08061 9.70587 7.35283 10.0229C7.62459 10.3405 7.95144 10.4993 8.33339 10.4993ZM8.33339 18.2973C8.24079 18.2973 8.1482 18.2771 8.05561 18.2366C7.96302 18.1961 7.882 18.1421 7.81255 18.0745C6.12274 16.3326 4.86117 14.7158 4.02783 13.224C3.1945 11.7316 2.77783 10.3373 2.77783 9.04098C2.77783 7.01552 3.3364 5.4019 4.45353 4.20012C5.57019 2.99835 6.86348 2.39746 8.33339 2.39746C9.80329 2.39746 11.0966 2.99835 12.2132 4.20012C13.3304 5.4019 13.8889 7.01552 13.8889 9.04098C13.8889 10.3373 13.4723 11.7316 12.6389 13.224C11.8056 14.7158 10.544 16.3326 8.85422 18.0745C8.78478 18.1421 8.70376 18.1961 8.61116 18.2366C8.51857 18.2771 8.42598 18.2973 8.33339 18.2973Z" fill="black"/>
</svg>
