<svg width="17" height="21" viewBox="0 0 17 21" fill="none" xmlns="http://www.w3.org/2000/svg">
<path d="M8.32181 10.3081C8.70322 10.3081 9.02985 10.1496 9.3017 9.83242C9.57308 9.5158 9.70877 9.135 9.70877 8.69002C9.70877 8.24504 9.57308 7.86397 9.3017 7.54682C9.02985 7.2302 8.70322 7.0719 8.32181 7.0719C7.94039 7.0719 7.61399 7.2302 7.34261 7.54682C7.07077 7.86397 6.93484 8.24504 6.93484 8.69002C6.93484 9.135 7.07077 9.5158 7.34261 9.83242C7.61399 10.1496 7.94039 10.3081 8.32181 10.3081ZM8.32181 18.0954C8.22934 18.0954 8.13688 18.0751 8.04441 18.0347C7.95195 17.9942 7.87104 17.9403 7.8017 17.8729C6.11422 16.1334 4.8544 14.5188 4.02222 13.029C3.19005 11.5387 2.77396 10.1463 2.77396 8.85183C2.77396 6.82918 3.33175 5.2178 4.44733 4.01769C5.56244 2.81758 6.85394 2.21753 8.32181 2.21753C9.78968 2.21753 11.0812 2.81758 12.1963 4.01769C13.3119 5.2178 13.8697 6.82918 13.8697 8.85183C13.8697 10.1463 13.4536 11.5387 12.6214 13.029C11.7892 14.5188 10.5294 16.1334 8.84192 17.8729C8.77257 17.9403 8.69166 17.9942 8.5992 18.0347C8.50673 18.0751 8.41427 18.0954 8.32181 18.0954Z" fill="black"/>
</svg>
