<svg width="14" height="16" viewBox="0 0 14 16" fill="none" xmlns="http://www.w3.org/2000/svg">
<path d="M6.69225 8.03869C6.99898 8.03869 7.26165 7.91117 7.48027 7.65612C7.69851 7.4015 7.80763 7.09527 7.80763 6.73741C7.80763 6.37956 7.69851 6.07311 7.48027 5.81806C7.26165 5.56344 6.99898 5.43613 6.69225 5.43613C6.38552 5.43613 6.12303 5.56344 5.90479 5.81806C5.68617 6.07311 5.57687 6.37956 5.57687 6.73741C5.57687 7.09527 5.68617 7.4015 5.90479 7.65612C6.12303 7.91117 6.38552 8.03869 6.69225 8.03869ZM6.69225 14.3011C6.61789 14.3011 6.54353 14.2848 6.46917 14.2523C6.39481 14.2198 6.32975 14.1764 6.27398 14.1222C4.91693 12.7233 3.90379 11.4248 3.23456 10.2268C2.56533 9.02832 2.23071 7.90857 2.23071 6.86754C2.23071 5.24094 2.67928 3.94508 3.57642 2.97996C4.47319 2.01485 5.5118 1.53229 6.69225 1.53229C7.8727 1.53229 8.91131 2.01485 9.80807 2.97996C10.7052 3.94508 11.1538 5.24094 11.1538 6.86754C11.1538 7.90857 10.8192 9.02832 10.1499 10.2268C9.48071 11.4248 8.46757 12.7233 7.11052 14.1222C7.05475 14.1764 6.98969 14.2198 6.91533 14.2523C6.84097 14.2848 6.76661 14.3011 6.69225 14.3011Z" fill="black"/>
</svg>
