<svg width="17" height="21" viewBox="0 0 17 21" fill="none" xmlns="http://www.w3.org/2000/svg">
<path d="M8.32178 10.3079C8.70319 10.3079 9.02982 10.1493 9.30167 9.83217C9.57305 9.51556 9.70874 9.13476 9.70874 8.68978C9.70874 8.24479 9.57305 7.86373 9.30167 7.54657C9.02982 7.22996 8.70319 7.07165 8.32178 7.07165C7.94036 7.07165 7.61396 7.22996 7.34258 7.54657C7.07074 7.86373 6.93481 8.24479 6.93481 8.68978C6.93481 9.13476 7.07074 9.51556 7.34258 9.83217C7.61396 10.1493 7.94036 10.3079 8.32178 10.3079ZM8.32178 18.0951C8.22931 18.0951 8.13685 18.0749 8.04438 18.0344C7.95192 17.994 7.87101 17.94 7.80166 17.8726C6.11419 16.1331 4.85437 14.5185 4.02219 13.0288C3.19001 11.5385 2.77393 10.1461 2.77393 8.85159C2.77393 6.82894 3.33172 5.21755 4.4473 4.01745C5.56241 2.81734 6.85391 2.21729 8.32178 2.21729C9.78964 2.21729 11.0811 2.81734 12.1963 4.01745C13.3118 5.21755 13.8696 6.82894 13.8696 8.85159C13.8696 10.1461 13.4535 11.5385 12.6214 13.0288C11.7892 14.5185 10.5294 16.1331 8.84189 17.8726C8.77254 17.94 8.69163 17.994 8.59917 18.0344C8.5067 18.0749 8.41424 18.0951 8.32178 18.0951Z" fill="black"/>
</svg>
