<svg width="12" height="16" viewBox="0 0 12 16" fill="none" xmlns="http://www.w3.org/2000/svg">
<path d="M5.63697 7.7191C5.89533 7.7191 6.11659 7.59871 6.30074 7.35792C6.48457 7.11755 6.57648 6.82844 6.57648 6.49061C6.57648 6.15278 6.48457 5.86347 6.30074 5.62268C6.11659 5.38231 5.89533 5.26212 5.63697 5.26212C5.3786 5.26212 5.1575 5.38231 4.97367 5.62268C4.78952 5.86347 4.69745 6.15278 4.69745 6.49061C4.69745 6.82844 4.78952 7.11755 4.97367 7.35792C5.1575 7.59871 5.3786 7.7191 5.63697 7.7191ZM5.63697 13.6312C5.57433 13.6312 5.5117 13.6158 5.44906 13.5851C5.38643 13.5544 5.33162 13.5135 5.28465 13.4623C4.14157 12.1417 3.28818 10.9158 2.72447 9.7848C2.16076 8.65336 1.87891 7.59625 1.87891 6.61346C1.87891 5.07785 2.25675 3.85448 3.01243 2.94335C3.7678 2.03222 4.64265 1.57666 5.63697 1.57666C6.63129 1.57666 7.50613 2.03222 8.2615 2.94335C9.01719 3.85448 9.39503 5.07785 9.39503 6.61346C9.39503 7.59625 9.11317 8.65336 8.54947 9.7848C7.98576 10.9158 7.13236 12.1417 5.98929 13.4623C5.94231 13.5135 5.8875 13.5544 5.82487 13.5851C5.76224 13.6158 5.6996 13.6312 5.63697 13.6312Z" fill="black"/>
</svg>
