<svg width="18" height="20" viewBox="0 0 18 20" fill="none" xmlns="http://www.w3.org/2000/svg">
<path d="M8.99512 10.2076C9.37653 10.2076 9.70316 10.049 9.975 9.73183C10.2464 9.41522 10.3821 9.03442 10.3821 8.58944C10.3821 8.14445 10.2464 7.76338 9.975 7.44623C9.70316 7.12962 9.37653 6.97131 8.99512 6.97131C8.6137 6.97131 8.2873 7.12962 8.01592 7.44623C7.74408 7.76338 7.60815 8.14445 7.60815 8.58944C7.60815 9.03442 7.74408 9.41522 8.01592 9.73183C8.2873 10.049 8.6137 10.2076 8.99512 10.2076ZM8.99512 17.9948C8.90265 17.9948 8.81019 17.9745 8.71772 17.9341C8.62526 17.8936 8.54435 17.8397 8.475 17.7723C6.78753 16.0328 5.52771 14.4182 4.69553 12.9284C3.86335 11.4381 3.44727 10.0457 3.44727 8.75125C3.44727 6.72859 4.00506 5.11721 5.12064 3.91711C6.23575 2.717 7.52725 2.11694 8.99512 2.11694C10.463 2.11694 11.7545 2.717 12.8696 3.91711C13.9852 5.11721 14.543 6.72859 14.543 8.75125C14.543 10.0457 14.1269 11.4381 13.2947 12.9284C12.4625 14.4182 11.2027 16.0328 9.51523 17.7723C9.44588 17.8397 9.36497 17.8936 9.27251 17.9341C9.18004 17.9745 9.08758 17.9948 8.99512 17.9948Z" fill="black"/>
</svg>
